<svg height="128" width="128" xmlns="http://www.w3.org/2000/svg" viewBox="0 0 509 509" xml:space="preserve"><path style="fill:#333842" d="M39.1 263.3h-6.2v10.5H28l2.1 26.8s10.7 4.9 23.9 4.9h79.1l-94-42.2z"/><path style="fill:#080708" d="m183.3 264.3-14.4 46.8-76.8-13.3-10.1-18 26.6-38.9 54.8 4.4 13.5 11.9z"/><path style="fill:#a0a0a0" d="m95.4 222.2-36.5 4-12.7-22 4.4-1.4 6.3-11.4z"/><path style="fill:#6eb1e1" d="m105.8 217.3-48.9-28.7-10.7 15.6 2.4 1.5 8.3-11.9 38.5 28.4z"/><path style="fill:#f1f3f7" d="m56.9 188.6-10.7 15.6H30.4l8.9-15.6z"/><path style="fill:#bdbdbe" d="m46.2 204.2 2.4 1.5H33.5l-3.1-1.5z"/><path style="fill:#f1f3f7" d="m58.9 226.2 132.8-31.1s34.8-5.6 54.4 0 81.2 39.8 81.2 39.8l-128.8 16.8-139.6-25.5z"/><path style="fill:#f0582f" d="m477 284.2 4.1-4.8-59.8-38.3-79.5-10.2-30.5 1.8-37.1 4.2-135.8-16.7-79.5 6-20.3 34.7s3 16.7 11.4 25.1c3.2 3.2 21.1 7.6 42.1 11.8-1.1-3.5-1.7-7.3-1.7-11.2 0-21.6 17.5-39.2 39.2-39.2 21.6 0 39.2 17.5 39.2 39.2v24.5h312.4l-4.1-5.4v-21.5h-.1z"/><path style="fill:#d54232" d="M226.4 311.5c-.4-.4-37.4-40.2-49.4-60.1-4-6.6-5-12.3-3.1-17 2.8-6.8 10.8-8.9 11.1-9l.3 1.2c-.1 0-7.7 2-10.3 8.3-1.8 4.3-.8 9.7 3 15.9 12 19.8 48.9 59.5 49.3 59.9l-.9.8z"/><path style="fill:#b5261c" d="m185.3 262.4-18.4-1.7 18.4 27.5 22 1zM333.1 244.9l17.3 2.6s-15.6 15.3-22.1 15.8-128-12.4-128-12.4 116.7 8.7 119.4 7.7c2.5-1 13.4-13.7 13.4-13.7z"/><path style="fill:#d54232" d="m300.7 311.2-1.2-.3c.1-.4 11.3-42.8 11-56.8-.2-13.7-18.9-18.5-19.1-18.5l.3-1.2c.2 0 19.8 5.1 20 19.7.4 14.2-10.5 55.4-11 57.1z"/><path style="fill:#b5261c" d="m367.4 271.3-2.7 6.8s-8.1-5.2-11.4 0-22.3 27.4-28.5 27.6c-6.2.1-149.3-5-149.3-5s145.7 2.4 150.1-1.1c4.3-3.5 22-27.4 26.1-29.6s15.7 1.3 15.7 1.3z"/><path style="fill:#333842" d="M481.1 279.4h-16.6l4.7 15H466l-17.8-15-3 1 17.9 23.6-10.7-.9.7 8h28l-4.1-5.4v-21.5z"/><path style="fill:#d54232" d="m421.3 241.1-19.7 3.7s19.4 1.9 31.3 15.7c11.9 13.8 18.8 17.5 18.8 17.5l29.5 1.4-59.9-38.3z"/><path style="fill:#333842" d="M58.9 226.2s10.3.1 8.5 2.5-18.5 20-21.2 19l12.7-21.5z"/><path style="fill:#6eb1e1" d="M136.2 215.3s61.2-18 86.6-15.8 76.5 35.4 76.5 35.4l-53.4 8.8-109.7-28.4z"/><path style="fill:#4485c5" d="m247.5 195.5-5.3 3.8 62.8 34.1 17.3-1.2c-14.7-8-57.6-31.1-74.8-36.7z"/><path style="fill:#080708" d="M437.9 286.6c0-21.6-17.5-39.2-39.2-39.2-21.6 0-39.2 17.5-39.2 39.2 0 4.3.7 8.3 1.9 12.2l4.1 12.3h72.3v-24.5h.1z"/><circle style="fill:#4f5565" cx="129.6" cy="286.6" r="33.8"/><circle style="fill:#dededf" cx="129.6" cy="286.6" r="23.2"/><circle style="fill:#646b79" cx="129.6" cy="286.6" r="8.1"/><path style="fill:#4f5565" d="M134.4 276.1c0-5.4-4.4-9.7-9.7-9.7 0 5.4 4.4 9.7 9.7 9.7zM124.7 297c0 5.4 4.4 9.7 9.7 9.7 0-5.3-4.3-9.7-9.7-9.7zM140 291.4c5.4 0 9.7-4.4 9.7-9.7-5.3 0-9.7 4.4-9.7 9.7zM119.1 281.7c-5.4 0-9.7 4.4-9.7 9.7 5.4 0 9.7-4.3 9.7-9.7zM125.6 275.7c-3.8-3.8-10-3.8-13.8 0 3.9 3.9 10 3.9 13.8 0zM133.5 297.4c3.8 3.8 10 3.8 13.8 0-3.8-3.8-10-3.8-13.8 0zM140.4 268.9c-3.8 3.8-3.8 10 0 13.8 3.8-3.9 3.8-10 0-13.8zM118.8 304.3c3.8-3.8 3.8-10 0-13.8-3.8 3.8-3.8 10 0 13.8z"/><circle style="fill:#4f5565" cx="398.7" cy="286.6" r="33.8"/><circle style="fill:#dededf" cx="398.7" cy="286.6" r="23.2"/><circle style="fill:#646b79" cx="398.7" cy="286.6" r="8.1"/><path style="fill:#4f5565" d="M403.6 276.1c0-5.4-4.4-9.7-9.7-9.7-.1 5.4 4.3 9.7 9.7 9.7zM393.8 297c0 5.4 4.4 9.7 9.7 9.7.1-5.3-4.3-9.7-9.7-9.7zM409.1 291.4c5.4 0 9.7-4.4 9.7-9.7-5.3 0-9.7 4.4-9.7 9.7zM388.3 281.7c-5.4 0-9.7 4.4-9.7 9.7 5.3 0 9.7-4.3 9.7-9.7zM394.8 275.7c-3.8-3.8-10-3.8-13.8 0 3.8 3.9 10 3.9 13.8 0zM402.6 297.4c3.8 3.8 10 3.8 13.8 0-3.8-3.8-10-3.8-13.8 0zM409.5 268.9c-3.8 3.8-3.8 10 0 13.8 3.8-3.9 3.8-10 0-13.8zM387.9 304.3c3.8-3.8 3.8-10 0-13.8-3.8 3.8-3.8 10 0 13.8z"/></svg>